<?xml version="1.0" encoding="UTF-8"?>
<svg version="1.1" xmlns="http://www.w3.org/2000/svg" width="400" height="400">
<path d="M0 0 C6.65411365 3.54678967 12.97960698 7.65319502 19.25488281 11.82373047 C22.59061463 14.03332619 25.95277706 16.2021315 29.3125 18.375 C30.0235791 18.83575928 30.7346582 19.29651855 31.46728516 19.77124023 C36.72705889 23.17431266 42.01314091 26.5339676 47.3125 29.875 C48.08859619 30.36484375 48.86469238 30.8546875 49.66430664 31.359375 C53.0954876 33.52430755 56.52757696 35.68771079 59.96435547 37.84375 C62.89559225 39.68326306 65.82296971 41.52880284 68.75 43.375 C69.65000732 43.93743408 70.55001465 44.49986816 71.47729492 45.0793457 C81.63938763 51.50333118 89.23543406 56.39380218 93.125 68.0625 C93.95702017 74.85505813 92.73712654 80.26851833 89.125 86.0625 C83.26570922 92.5154552 75.592535 96.5126687 68.0625 100.6875 C66.81013221 101.39096333 65.55826787 102.09532363 64.30688477 102.80053711 C61.77885346 104.22353983 59.24812404 105.64153943 56.71484375 107.05517578 C53.51029147 108.84453321 50.31571772 110.65090561 47.125 112.46484375 C37.27036039 118.06683393 27.38311791 123.61063504 17.48001099 129.12643433 C15.73869027 130.0964831 13.99811779 131.06787464 12.25756836 132.03930664 C-7.93060725 143.25967257 -7.93060725 143.25967257 -16.875 142.0625 C-25.18160491 139.28115932 -30.30679999 134.69642611 -34.4921875 127.14453125 C-36.71302011 121.70616491 -36.45739267 115.91611166 -36.5625 110.125 C-36.59511967 108.79059837 -36.62817515 107.45620734 -36.66162109 106.12182617 C-37.25493678 79.98040462 -37.29121882 53.76374921 -36.5625 27.625 C-36.54010254 26.55032471 -36.51770508 25.47564941 -36.49462891 24.3684082 C-36.24002969 17.31508828 -35.56111565 10.44162204 -31.04296875 4.7578125 C-20.8474674 -3.32619449 -12.29589725 -5.95453002 0 0 Z " fill="#FCFCFC" transform="translate(181.875,113.9375)"/>
<path d="M0 0 C0.14920898 0.59611084 0.29841797 1.19222168 0.45214844 1.80639648 C7.1578665 27.974141 17.67205428 51.70689997 36.59790039 71.27270508 C40 74.80548871 40 74.80548871 40 77 C40.66 77 41.32 77 42 77 C43.15275503 78.11782306 44.29878644 79.24309585 45.41796875 80.39453125 C63.52070133 98.76545246 87.20648821 109.86340864 112 116 C113.01779541 116.26466064 113.01779541 116.26466064 114.05615234 116.53466797 C147.47878685 124.95500211 186.01821023 117.55562905 215.8125 100.9453125 C220.50383294 98.0822196 224.96803828 94.94576187 229.41796875 91.72265625 C232 90 232 90 234 90 C234 89.34 234 88.68 234 88 C235.38997745 86.79696095 236.84048901 85.66364664 238.3125 84.5625 C250.54258135 74.92615781 259.30006531 63.77881711 268 51 C268.61875 50.10539062 269.2375 49.21078125 269.875 48.2890625 C277.82537045 35.97463001 283.28931379 20.72248625 286.625 6.5 C287.89108911 1.10891089 287.89108911 1.10891089 289 0 C292.01307342 -0.34216257 293.54468697 -0.28936561 296.1328125 1.35546875 C302.43626223 7.15217056 305.52489429 11.11796502 306.05078125 19.859375 C305.86183385 31.54504494 301.44790533 41.15507332 295.98144531 51.18701172 C295.11434647 52.78877191 294.28467827 54.41067256 293.4609375 56.03515625 C283.28350528 75.79302048 266.40945317 93.45680202 249 107 C248.00742187 107.78246094 247.01484375 108.56492187 245.9921875 109.37109375 C217.00243459 131.5284403 180.77629781 142.48613893 144.5625 142.375 C143.45723969 142.37318726 143.45723969 142.37318726 142.32965088 142.37133789 C95.71242386 142.16547244 53.55780446 123.04533562 20.54248047 90.56982422 C16.68194283 86.64085033 13.31472621 82.39024907 10 78 C9.11986854 76.87103381 8.23965602 75.74213083 7.359375 74.61328125 C-3.13659084 60.94583267 -20.03412262 38.33628201 -18.4921875 20.203125 C-16.73477688 12.3366203 -12.82392165 6.58492654 -7 1.125 C-4.52094244 -0.26946988 -2.80246455 -0.0829677 0 0 Z " fill="#EFD27F" transform="translate(56,213)"/>
<path d="M0 0 C10.09360136 8.97516052 19.30366182 18.69750888 26.6171875 30.09375 C27.14094971 30.8973999 27.14094971 30.8973999 27.67529297 31.71728516 C40.16873556 51.02927472 51.96899913 77.57563372 49.6171875 101.09375 C48.3167315 104.24222243 47.0657523 105.71115061 44.4921875 107.90625 C40.36421759 109.61128105 36.99833235 110.0328289 32.6171875 109.09375 C28.1463337 105.9489249 26.26017339 101.76163574 25.1484375 96.5390625 C24.78661252 94.43532057 24.44360484 92.32827581 24.1171875 90.21875 C19.96979261 66.87712323 10.89967418 44.80510153 -6.984375 28.546875 C-8.3828125 27.09375 -8.3828125 27.09375 -8.3828125 25.09375 C-8.96933594 24.83464844 -9.55585938 24.57554688 -10.16015625 24.30859375 C-12.54491591 23.00514866 -14.03134568 21.57820833 -15.9453125 19.65625 C-38.46854853 -0.61834872 -68.75707485 -7.32583253 -98.20751953 -6.11767578 C-111.70373779 -5.21903477 -124.14869472 -1.54298556 -136.3828125 4.09375 C-137.41664063 4.55652344 -138.45046875 5.01929688 -139.515625 5.49609375 C-167.28085346 18.58127322 -186.73644409 41.81580771 -197.56640625 70.1953125 C-199.2266994 75.19557279 -200.42806079 80.17790853 -201.3359375 85.36328125 C-201.5006958 86.2970459 -201.6654541 87.23081055 -201.83520508 88.19287109 C-202.15181644 90.0453742 -202.44943526 91.90125253 -202.7253418 93.76025391 C-203.70643257 99.65120549 -205.07874248 102.89745012 -209.3828125 107.09375 C-212.57623629 108.69046189 -215.90826881 108.46793163 -219.3828125 108.09375 C-223.1167342 106.43422924 -225.26682933 104.56704451 -227.3828125 101.09375 C-231.46632181 75.84405076 -217.73596527 46.58338792 -203.5703125 26.46875 C-192.05775813 11.2785741 -179.44459449 -1.50989657 -163.3828125 -11.90625 C-162.47402344 -12.51210937 -161.56523437 -13.11796875 -160.62890625 -13.7421875 C-111.47398804 -44.6475557 -43.35043238 -37.61834887 0 0 Z " fill="#F8F7F7" transform="translate(289.3828125,77.90625)"/>
<path d="M0 0 C0.74958984 0.05220703 1.49917969 0.10441406 2.27148438 0.15820312 C4.11887082 0.28763784 5.96574371 0.42436518 7.8125 0.5625 C9.37581798 5.36546487 8.04189464 9.10578603 6.4375 13.6875 C6.16566895 14.47447266 5.89383789 15.26144531 5.61376953 16.07226562 C-2.00698096 37.44929587 -13.19058817 56.41608432 -29.1875 72.5625 C-29.85007812 73.2740625 -30.51265625 73.985625 -31.1953125 74.71875 C-52.49687956 97.17897971 -86.1246908 112.51191766 -117.03735352 113.66918945 C-142.41448143 114.16101704 -142.41448143 114.16101704 -153.1875 111.5625 C-154.17459961 111.32853516 -154.17459961 111.32853516 -155.18164062 111.08984375 C-192.84371445 101.96987968 -225.36313267 80.52077449 -245.953125 47.33984375 C-253.68646529 34.50586119 -264.28284046 16.89726644 -263.1875 1.5625 C-262.1875 0.5625 -262.1875 0.5625 -260.23803711 0.44897461 C-259.4053833 0.45421143 -258.57272949 0.45944824 -257.71484375 0.46484375 C-256.81572266 0.46806641 -255.91660156 0.47128906 -254.99023438 0.47460938 C-254.04470703 0.48298828 -253.09917969 0.49136719 -252.125 0.5 C-251.17560547 0.50451172 -250.22621094 0.50902344 -249.24804688 0.51367188 C-246.89446935 0.5254989 -244.54101523 0.54197975 -242.1875 0.5625 C-240.52998675 4.29438611 -238.99846385 8.0097989 -237.6796875 11.875 C-232.68351244 26.46345902 -226.18351375 38.64115088 -216.03515625 50.29296875 C-214.1875 52.5625 -214.1875 52.5625 -213.18359375 54.73828125 C-211.89022049 57.10692953 -210.6015545 57.41625829 -208.1875 58.5625 C-206.57365958 60.02962765 -204.99416452 61.53484165 -203.4375 63.0625 C-192.8353511 72.83172375 -180.57676119 79.39271219 -167.1875 84.5625 C-166.32511719 84.94019531 -165.46273437 85.31789063 -164.57421875 85.70703125 C-140.28975153 95.7909391 -108.17924051 93.73001825 -84.11328125 84.22265625 C-67.64298279 77.37182045 -53.83939306 68.01810135 -41.1875 55.5625 C-40.40761719 54.80710937 -39.62773437 54.05171875 -38.82421875 53.2734375 C-25.25631912 39.24765138 -17.53739971 21.2265401 -12.14453125 2.7578125 C-11.82871094 2.03335938 -11.51289063 1.30890625 -11.1875 0.5625 C-7.35939179 -0.71353607 -3.95274893 -0.30033987 0 0 Z " fill="#EDD07E" transform="translate(327.1875,211.4375)"/>
<path d="M0 0 C-0.41931748 7.27552609 -2.22600759 12.67966969 -5.4375 19.1875 C-5.88488525 20.10587646 -6.33227051 21.02425293 -6.79321289 21.97045898 C-20.67049172 49.71286704 -43.99773458 69.25587974 -73 80 C-81.41540694 82.74921932 -90.13474927 84.71522239 -99 85 C-99.63099609 85.02046387 -100.26199219 85.04092773 -100.91210938 85.06201172 C-113.62780855 85.41393294 -126.92260602 85.40861927 -139 81 C-139 80.01 -139 79.02 -139 78 C-137.7625 77.5978125 -137.7625 77.5978125 -136.5 77.1875 C-112.7760188 69.13829209 -91.67527462 55.26469044 -71.59375 40.5078125 C-64.1288813 35.03706626 -56.44177534 30.17677333 -48.47167969 25.4699707 C-43.22019619 22.36022356 -38.06402603 19.15669638 -33 15.75 C-32.09701172 15.14273071 -32.09701172 15.14273071 -31.17578125 14.52319336 C-28.33493441 12.60257127 -25.50936959 10.66103208 -22.69140625 8.70703125 C-9.00258589 -0.67519394 -9.00258589 -0.67519394 0 0 Z " fill="#EED27E" transform="translate(308,212)"/>
<path d="M0 0 C14.66830042 -0.92706955 14.66830042 -0.92706955 20.453125 3.53515625 C29.16004731 11.78034783 28.25446707 24.485003 28.57104492 35.70556641 C28.7659323 41.33775569 29.58905171 46.54405984 31 52 C30.01 52.495 30.01 52.495 29 53 C19.08017547 45.52951486 13.22325781 35.0696233 7.5625 24.25 C7.05452881 23.28022217 6.54655762 22.31044434 6.02319336 21.3112793 C-1.49203742 6.56671641 -1.49203742 6.56671641 -0.56811523 1.74707031 C-0.38063721 1.17053711 -0.19315918 0.59400391 0 0 Z " fill="#F4D885" transform="translate(93,212)"/>
<path d="M0 0 C14.66830042 -0.92706955 14.66830042 -0.92706955 20.453125 3.53515625 C29.16004731 11.78034783 28.25446707 24.485003 28.57104492 35.70556641 C28.7659323 41.33775569 29.58905171 46.54405984 31 52 C30.01 52.495 30.01 52.495 29 53 C19.08017547 45.52951486 13.22325781 35.0696233 7.5625 24.25 C7.05452881 23.28022217 6.54655762 22.31044434 6.02319336 21.3112793 C-1.49203742 6.56671641 -1.49203742 6.56671641 -0.56811523 1.74707031 C-0.38063721 1.17053711 -0.19315918 0.59400391 0 0 Z M18 4 C17.67 4.99 17.34 5.98 17 7 C16.01 7.66 15.02 8.32 14 9 C15.134375 9.28875 16.26875 9.5775 17.4375 9.875 C18.613125 10.24625 19.78875 10.6175 21 11 C21.33 11.66 21.66 12.32 22 13 C21.34 12.67 20.68 12.34 20 12 C18.62657169 11.9310528 17.24997898 11.91532292 15.875 11.9375 C14.59625 11.958125 13.3175 11.97875 12 12 C12 11.34 12 10.68 12 10 C11.34 10 10.68 10 10 10 C8.36323743 11.9600281 8.36323743 11.9600281 7 14 C7.66 14 8.32 14 9 14 C8.41025391 15.27230469 8.41025391 15.27230469 7.80859375 16.5703125 C6.78077712 20.92984392 7.92570732 23.17178764 10.0625 26.875 C10.41376953 27.51123291 10.76503906 28.14746582 11.12695312 28.80297852 C15.800488 36.8959568 21.91811223 43.94463934 28 51 C29.26504101 48.46991799 28.81685695 47.74208766 28.08984375 45.05859375 C26.60271633 38.82462542 26.61486739 32.64093838 26.52148438 26.25976562 C26.3069982 18.79460043 25.87645193 10.8095577 20.3125 5.375 C19.549375 4.92125 18.78625 4.4675 18 4 Z " fill="#E5CA7D" transform="translate(93,212)"/>
<path d="M0 0 C0.66 0 1.32 0 2 0 C2 38.28 2 76.56 2 116 C-2.52880167 111.47119833 -1.37694975 104.31921196 -1.5625 98.3125 C-1.58334656 97.65406097 -1.60419312 96.99562195 -1.62567139 96.31723022 C-4.13281427 14.61507681 -4.13281427 14.61507681 0 0 Z " fill="#B6ACAE" transform="translate(147,126)"/>
<path d="M0 0 C-2.86407227 11.40971881 -6.39567468 22.62161978 -12 33 C-12.66 32.67 -13.32 32.34 -14 32 C-13.649375 31.071875 -13.29875 30.14375 -12.9375 29.1875 C-11.67617372 26.0197047 -11.67617372 26.0197047 -13 23 C-13.0918277 21.55432014 -13.13066598 20.10484172 -13.1328125 18.65625 C-13.13410156 17.82222656 -13.13539063 16.98820312 -13.13671875 16.12890625 C-13.13285156 15.26136719 -13.12898438 14.39382812 -13.125 13.5 C-13.12886719 12.63246094 -13.13273437 11.76492187 -13.13671875 10.87109375 C-13.13542969 10.03707031 -13.13414062 9.20304688 -13.1328125 8.34375 C-13.13168457 7.58255859 -13.13055664 6.82136719 -13.12939453 6.03710938 C-13 4 -13 4 -12 1 C-7.9472484 0.01751476 -4.16138263 -0.08159574 0 0 Z " fill="#F5D883" transform="translate(335,214)"/>
<path d="M0 0 C3.35996715 3.72996353 4.54833432 7.98673405 6 12.6875 C6.26055176 13.52458496 6.52110352 14.36166992 6.78955078 15.22412109 C14.86978216 42.05210634 14.86978216 42.05210634 10.8125 51.875 C7.52507343 55.72922425 4.57730281 57.19515976 -0.4375 57.625 C-3.99226444 57.42353742 -5.72465384 56.87960498 -8.12109375 54.22265625 C-12.02322631 49.33523677 -12.67306003 43.85227064 -13.625 37.8125 C-14.92645685 30.05562855 -16.53709892 22.84817393 -19.30615234 15.4675293 C-20 13 -20 13 -19 10 C-14.91766943 19.85890902 -12.10955375 29.54000583 -10.29296875 40.046875 C-10.17066895 40.72572754 -10.04836914 41.40458008 -9.92236328 42.10400391 C-9.57984811 44.0275728 -9.26001334 45.95513943 -8.94140625 47.8828125 C-8.24858413 51.02707506 -8.24858413 51.02707506 -6.18359375 52.8984375 C-3.78020406 54.11088096 -2.18312376 54.46324488 0.5 54.5 C1.62921875 54.54640625 1.62921875 54.54640625 2.78125 54.59375 C6.16277258 53.68883551 7.19703347 51.92427458 9 49 C11.34067719 35.93275488 6.9186505 21.24984036 1.98193359 9.22729492 C0.60299489 5.84772208 0 3.72460263 0 0 Z " fill="#C0B9BB" transform="translate(327,130)"/>
<path d="M0 0 C0.66 0.33 1.32 0.66 2 1 C2 1.99 2 2.98 2 4 C2.66 4.33 3.32 4.66 4 5 C3.01 5.33 2.02 5.66 1 6 C1 6.99 1 7.98 1 9 C0.01 9.33 -0.98 9.66 -2 10 C-0.02 9.67 1.96 9.34 4 9 C4 9.66 4 10.32 4 11 C5.43791516 10.85831863 6.8753237 10.71148957 8.3125 10.5625 C9.51326172 10.44068359 9.51326172 10.44068359 10.73828125 10.31640625 C13.16087179 10.04734307 13.16087179 10.04734307 16 9 C16 9.66 16 10.32 16 11 C16.99 10.67 17.98 10.34 19 10 C20.72795352 9.93197033 22.45835365 9.91504355 24.1875 9.9375 C25.08855469 9.94652344 25.98960937 9.95554687 26.91796875 9.96484375 C27.60503906 9.97644531 28.29210937 9.98804688 29 10 C23.92319691 13.14774323 17.98817128 12.33385945 12.22265625 12.31567383 C10.16610218 12.31256219 8.11105865 12.3358093 6.0546875 12.36132812 C-3.02045527 12.40272409 -11.17343474 11.28219644 -20 9 C-17.79360635 6.79360635 -16.56473413 6.42684043 -13.625 5.5625 C-10.18667146 4.48251219 -7.81868164 3.27662748 -5 1 C-4.01 1 -3.02 1 -2 1 C-1.34 0.67 -0.68 0.34 0 0 Z " fill="#F5D886" transform="translate(191,283)"/>
<path d="M0 0 C3.08563055 1.54281528 3.48987292 4.54186321 4.625 7.625 C10.30809184 22.26975549 17.82215275 34.04102948 28 46 C27.86142578 45.40574219 27.72285156 44.81148438 27.58007812 44.19921875 C25.97115926 36.8359815 25.61247252 29.72384597 25.43359375 22.2109375 C25.23097178 15.95608523 24.42139151 10.0954557 23 4 C29.38179761 9.96568643 28.1689286 20.9496196 28.5 29.1875 C28.53504639 30.43358032 28.53504639 30.43358032 28.57080078 31.70483398 C28.76619639 37.337252 29.58898044 42.54378426 31 48 C30.01 48.495 30.01 48.495 29 49 C19.08969267 41.53668213 13.19479558 31.0424519 7.5 20.25 C6.9836499 19.28022217 6.4672998 18.31044434 5.93530273 17.3112793 C2.98619837 11.56379056 1.10094502 6.36975333 0 0 Z " fill="#AF9664" transform="translate(93,216)"/>
<path d="M0 0 C0.66 0 1.32 0 2 0 C1.67 22.77 1.34 45.54 1 69 C0.67 69 0.34 69 0 69 C-0.33 59.43 -0.66 49.86 -1 40 C-1.33 40 -1.66 40 -2 40 C-1.88160948 34.94613319 -1.7573513 29.89245731 -1.62768555 24.83886719 C-1.58440984 23.12015695 -1.54272959 21.40140576 -1.50268555 19.68261719 C-1.44480435 17.210161 -1.38116164 14.73790953 -1.31640625 12.265625 C-1.29969376 11.49881409 -1.28298126 10.73200317 -1.26576233 9.94195557 C-1.16987135 6.47826016 -0.92084138 3.33633749 0 0 Z " fill="#D7D2D5" transform="translate(147,126)"/>
<path d="M0 0 C0.66 0.66 1.32 1.32 2 2 C-12.99087167 18.97547879 -12.99087167 18.97547879 -20 24 C-20.66 23.67 -21.32 23.34 -22 23 C-22 21.68 -22 20.36 -22 19 C-18.91190305 17.23537317 -17.76687864 17 -14 17 C-14.0928125 15.824375 -14.0928125 15.824375 -14.1875 14.625 C-14.125625 13.75875 -14.06375 12.8925 -14 12 C-13.01 11.34 -12.02 10.68 -11 10 C-10.319375 9.319375 -9.63875 8.63875 -8.9375 7.9375 C-7 6 -7 6 -5 5 C-4.67 4.01 -4.34 3.02 -4 2 C-1.9375 0.8125 -1.9375 0.8125 0 0 Z " fill="#F5D88D" transform="translate(304,271)"/>
<path d="M0 0 C1.9375 0.8125 1.9375 0.8125 3.9375 3.8125 C5.5875 3.1525 7.2375 2.4925 8.9375 1.8125 C5.56577167 5.63264233 1.81633369 7.78227143 -2.625 10.125 C-3.29724609 10.49689453 -3.96949219 10.86878906 -4.66210938 11.25195312 C-6.42000267 12.18937984 -8.23917071 13.00973728 -10.0625 13.8125 C-11.0525 13.4825 -12.0425 13.1525 -13.0625 12.8125 C-10.4225 11.4925 -7.7825 10.1725 -5.0625 8.8125 C-5.0625 8.1525 -5.0625 7.4925 -5.0625 6.8125 C-5.7225 6.4825 -6.3825 6.1525 -7.0625 5.8125 C-5.59136702 2.41757774 -4.19857512 -0.38168865 0 0 Z " fill="#E1C67F" transform="translate(255.0625,274.1875)"/>
<path d="M0 0 C0.66 1.32 1.32 2.64 2 4 C-2.75 8 -2.75 8 -5 8 C-5.103125 8.639375 -5.20625 9.27875 -5.3125 9.9375 C-5.539375 10.618125 -5.76625 11.29875 -6 12 C-6.99 12.33 -7.98 12.66 -9 13 C-8.67 14.98 -8.34 16.96 -8 19 C-9.98 18.34 -11.96 17.68 -14 17 C-12.52778565 11.97769914 -9.5510349 9.19721778 -5.875 5.6875 C-5.31167969 5.13771484 -4.74835938 4.58792969 -4.16796875 4.02148438 C-2.78537942 2.67404562 -1.39359084 1.33605727 0 0 Z " fill="#F8DB87" transform="translate(311,284)"/>
<path d="M0 0 C2.0625 0.4375 2.0625 0.4375 4 1 C4 1.66 4 2.32 4 3 C3.34 3 2.68 3 2 3 C2 3.99 2 4.98 2 6 C1.34 6 0.68 6 0 6 C-0.19335938 6.88042969 -0.38671875 7.76085937 -0.5859375 8.66796875 C-0.84632813 9.82941406 -1.10671875 10.99085938 -1.375 12.1875 C-1.63023437 13.33605469 -1.88546875 14.48460937 -2.1484375 15.66796875 C-3 19 -3 19 -4.09375 21.71875 C-5.22657288 24.57033864 -5.14135638 26.96083787 -5 30 C-7.44996225 27.55003775 -7.71445075 26.42659099 -8 23 C-7.07421875 19.984375 -7.07421875 19.984375 -5.6875 16.75 C-3.53137676 11.49407632 -2.11127127 6.55635637 -1 1 C-0.67 0.67 -0.34 0.34 0 0 Z " fill="#F3D68D" transform="translate(317,213)"/>
<path d="M0 0 C1.65 0 3.3 0 5 0 C4.73445313 0.85722656 4.46890625 1.71445313 4.1953125 2.59765625 C3.66550781 4.31275391 3.66550781 4.31275391 3.125 6.0625 C2.75503906 7.2484375 2.38507813 8.434375 2.00390625 9.65625 C1.26221869 12.12661789 0.6295988 14.551849 0.0625 17.0625 C-1.22818806 20.63087286 -2.87122593 21.941596 -6 24 C-5.505 19.545 -5.505 19.545 -5 15 C-4.34 15.33 -3.68 15.66 -3 16 C-0.57500463 10.82667655 0 5.6925124 0 0 Z " fill="#F2D48D" transform="translate(302,214)"/>
<path d="M0 0 C0.96392528 2.99887865 1.35886391 5.08814875 0 8 C-2.3125 9.125 -2.3125 9.125 -5 10 C-8.53367341 11.53050823 -11.27418387 13.69736052 -14.25 16.125 C-15.58804687 17.21167969 -15.58804687 17.21167969 -16.953125 18.3203125 C-17.62859375 18.87460937 -18.3040625 19.42890625 -19 20 C-19.66 19.67 -20.32 19.34 -21 19 C-18.87418434 15.81127651 -18.22809516 15.59961066 -15 14 C-13.31656755 12.60672013 -11.67323878 11.16421737 -10.0625 9.6875 C-9.18980469 8.88828125 -8.31710937 8.0890625 -7.41796875 7.265625 C-4.88652734 4.89367667 -2.41214899 2.49255396 0 0 Z " fill="#F4DB91" transform="translate(291,264)"/>
<path d="M0 0 C0 0.66 0 1.32 0 2 C2.31 1.34 4.62 0.68 7 0 C7 0.66 7 1.32 7 2 C6.01 2.495 6.01 2.495 5 3 C5.66 3.33 6.32 3.66 7 4 C7 4.66 7 5.32 7 6 C4.03 6.66 1.06 7.32 -2 8 C-2 7.01 -2 6.02 -2 5 C-4.475 4.01 -4.475 4.01 -7 3 C-4.49955934 -0.00052879 -4.2621484 0 0 0 Z " fill="#F7D888" transform="translate(239,342)"/>
<path d="M0 0 C1.89693861 0.28438952 3.79252027 0.57783792 5.6875 0.875 C6.74324219 1.03742188 7.79898438 1.19984375 8.88671875 1.3671875 C11.79794914 1.95893069 14.28955607 2.8031806 17 4 C17 4.33 17 4.66 17 5 C15.02 5 13.04 5 11 5 C12.65 5.33 14.3 5.66 16 6 C15.01 6.495 15.01 6.495 14 7 C13.67 7.66 13.34 8.32 13 9 C13 8.34 13 7.68 13 7 C8.83861737 6.91840426 5.0527516 7.01751476 1 8 C1.66 7.67 2.32 7.34 3 7 C3.65213292 4.97536745 3.65213292 4.97536745 4 3 C2.68 2.34 1.36 1.68 0 1 C0 0.67 0 0.34 0 0 Z " fill="#F8DC84" transform="translate(153,327)"/>
<path d="M0 0 C0.86625 0.4640625 0.86625 0.4640625 1.75 0.9375 C3.89105925 2.07610416 3.89105925 2.07610416 5.96875 2.31640625 C8.72710671 3.24469937 9.28542265 4.51883366 10.75 7 C13.50946843 11.42078106 16.67085729 15.09740879 20.265625 18.859375 C22.11761612 21.14516584 23.05097135 23.23038578 24 26 C20.64780262 22.75593802 17.46323636 19.37790083 14.3125 15.9375 C13.54550781 15.10089844 12.77851563 14.26429687 11.98828125 13.40234375 C10.24353755 11.2942546 9.17947546 9.43504611 8 7 C7.38125 6.690625 6.7625 6.38125 6.125 6.0625 C3.26202511 4.63101256 1.87569549 2.54558673 0 0 Z " fill="#BBB3B4" transform="translate(273,96)"/>
<path d="M0 0 C0 4.09756821 -1.62301373 6.78678864 -4 10 C-5.95602019 11.9205993 -7.9799444 13.68218082 -10.09765625 15.421875 C-11.83944744 16.86681061 -13.42811358 18.37424831 -15 20 C-15.99 19.67 -16.98 19.34 -18 19 C-17.2575 18.278125 -16.515 17.55625 -15.75 16.8125 C-13.02460563 14.12944371 -13.02460563 14.12944371 -11 11.4375 C-9 9 -9 9 -6.375 6.9375 C-4.00793743 5.00647527 -3.2196045 3.7206562 -2 1 C-1.34 0.67 -0.68 0.34 0 0 Z " fill="#F3D18B" transform="translate(289,248)"/>
<path d="M0 0 C0 3 0 3 -2.625 5.8125 C-4.31425694 7.42936021 -6.02416772 9.02253476 -7.734375 10.6171875 C-9.20712705 12.0268216 -10.60899641 13.50963901 -12 15 C-12 15.99 -12 16.98 -12 18 C-12.66 18 -13.32 18 -14 18 C-14.33 19.32 -14.66 20.64 -15 22 C-15.66 21.01 -16.32 20.02 -17 19 C-18.98 19.99 -18.98 19.99 -21 21 C-21 20.34 -21 19.68 -21 19 C-19.61002255 17.79696095 -18.15951099 16.66364664 -16.6875 15.5625 C-10.61526904 10.84544505 -5.33290984 5.51540485 0 0 Z " fill="#BCA675" transform="translate(311,282)"/>
<path d="M0 0 C-3.50608038 4.11583349 -8.04628837 6.90567018 -13 9 C-13.66 8.67 -14.32 8.34 -15 8 C-14.01 7.67 -13.02 7.34 -12 7 C-12 6.34 -12 5.68 -12 5 C-12.99 4.67 -13.98 4.34 -15 4 C-14 2 -14 2 -12 0.875 C-7.95982523 -0.30338431 -4.17793151 -0.16384045 0 0 Z " fill="#E9CB7E" transform="translate(295,326)"/>
<path d="M0 0 C0 3 0 3 -1.6875 5.05078125 C-6.53315405 9.79002736 -11.42974682 14.1296606 -17 18 C-17.66 17.67 -18.32 17.34 -19 17 C-18.505 15.515 -18.505 15.515 -18 14 C-17.34 14 -16.68 14 -16 14 C-15.67 12.68 -15.34 11.36 -15 10 C-14.01 9.835 -13.02 9.67 -12 9.5 C-6.72956056 8.0557487 -3.53609947 3.94940979 0 0 Z " fill="#CAAD7A" transform="translate(283,258)"/>
<path d="M0 0 C1.9375 0.1875 1.9375 0.1875 4 1 C5.25 3.0625 5.25 3.0625 6 5 C6.33 4.34 6.66 3.68 7 3 C7.66 3.66 8.32 4.32 9 5 C9.99 5.33 10.98 5.66 12 6 C12 6.33 12 6.66 12 7 C5.04339229 6.42978625 -1.31427305 4.98697306 -8 3 C-6 1 -6 1 -3.4375 0.9375 C-2.2309375 0.9684375 -2.2309375 0.9684375 -1 1 C-0.67 0.67 -0.34 0.34 0 0 Z " fill="#F7D987" transform="translate(159,344)"/>
<path d="M0 0 C0.33 0 0.66 0 1 0 C1.12117188 0.81984375 1.24234375 1.6396875 1.3671875 2.484375 C1.53476562 3.56203125 1.70234375 4.6396875 1.875 5.75 C2.03742187 6.81734375 2.19984375 7.8846875 2.3671875 8.984375 C2.9419017 11.7231365 3.66751807 13.57730558 5 16 C6.0536198 18.64854887 7.01854266 21.32329815 8 24 C7.01 24 6.02 24 5 24 C-2.52777778 7.58333333 -2.52777778 7.58333333 0 0 Z " fill="#F5D88B" transform="translate(40,230)"/>
<path d="M0 0 C2.61371215 2.3932786 4.40088665 4.98397046 6.25 8 C6.79140625 8.86625 7.3328125 9.7325 7.890625 10.625 C9 13 9 13 8 16 C7.67 15.34 7.34 14.68 7 14 C6.01 14 5.02 14 4 14 C3.54625 12.88625 3.0925 11.7725 2.625 10.625 C1.27534014 7.03800992 1.27534014 7.03800992 -1 5 C-0.625 2.375 -0.625 2.375 0 0 Z " fill="#F8DA8B" transform="translate(65,249)"/>
<path d="M0 0 C0.66 0.33 1.32 0.66 2 1 C2 1.66 2 2.32 2 3 C3.32 2.34 4.64 1.68 6 1 C4.58319756 5.32046898 2.46236215 8.00461199 -0.625 11.3125 C-1.44226563 12.19550781 -2.25953125 13.07851563 -3.1015625 13.98828125 C-4.04128906 14.98408203 -4.04128906 14.98408203 -5 16 C-5.33 14.68 -5.66 13.36 -6 12 C-5.01 11.67 -4.02 11.34 -3 11 C-2.835 10.34 -2.67 9.68 -2.5 9 C-2.335 8.34 -2.17 7.68 -2 7 C-1.01 6.67 -0.02 6.34 1 6 C1.33 5.34 1.66 4.68 2 4 C1.34 4 0.68 4 0 4 C0 4.66 0 5.32 0 6 C-0.66 6 -1.32 6 -2 6 C-2 5.01 -2 4.02 -2 3 C-1.34 3 -0.68 3 0 3 C0 2.01 0 1.02 0 0 Z " fill="#DFC477" transform="translate(334,281)"/>
<path d="M0 0 C0.99 0.66 1.98 1.32 3 2 C2.17757812 1.94199219 1.35515625 1.88398437 0.5078125 1.82421875 C-7.50880185 1.50022163 -13.41605296 2.20736108 -20 7 C-22.2905887 9.22173333 -24.08339682 11.42771679 -26 14 C-26.33 13.34 -26.66 12.68 -27 12 C-19.40663875 2.22354739 -12.6672729 -1.6139044 0 0 Z " fill="#CBC5C8" transform="translate(175,111)"/>
<path d="M0 0 C2.45862401 -0.05383848 4.9160755 -0.09359038 7.375 -0.125 C8.42300781 -0.15013672 8.42300781 -0.15013672 9.4921875 -0.17578125 C11.32897486 -0.19344267 13.16601963 -0.10303261 15 0 C15.66 0.66 16.32 1.32 17 2 C13.30458414 2.95024979 10.69541586 2.95024979 7 2 C6.67 2.66 6.34 3.32 6 4 C5.34 4 4.68 4 4 4 C3.67 5.32 3.34 6.64 3 8 C0 2.25 0 2.25 0 0 Z " fill="#F4D890" transform="translate(93,214)"/>
<path d="M0 0 C2.85215083 2.75118973 5.34358701 5.60315225 7.75 8.75 C8.36359375 9.54921875 8.9771875 10.3484375 9.609375 11.171875 C10.06828125 11.77515625 10.5271875 12.3784375 11 13 C10.67 13.66 10.34 14.32 10 15 C9.01 14.34 8.02 13.68 7 13 C6.67 13.99 6.34 14.98 6 16 C5.34 16 4.68 16 4 16 C4.20625 15.21625 4.4125 14.4325 4.625 13.625 C4.810625 12.325625 4.810625 12.325625 5 11 C4.34 10.34 3.68 9.68 3 9 C2.40165446 7.47943382 1.86493344 5.93387912 1.375 4.375 C1.11460938 3.55773437 0.85421875 2.74046875 0.5859375 1.8984375 C0.39257812 1.27195312 0.19921875 0.64546875 0 0 Z " fill="#DCC07A" transform="translate(76,265)"/>
<path d="M0 0 C0.66 0 1.32 0 2 0 C1.10368306 3.01488424 0.32087126 4.71802222 -2.0625 6.8125 C-6.10575361 8.44700678 -9.70303439 8.87027152 -14 8 C-17.0625 5.5 -17.0625 5.5 -19 3 C-18.67 2.34 -18.34 1.68 -18 1 C-17.360625 1.66 -16.72125 2.32 -16.0625 3 C-12.45870557 5.3534984 -10.30496082 5.63384817 -6.0859375 5.47265625 C-3.68130256 5.12663034 -3.68130256 5.12663034 -1.5625 2.5 C-1.046875 1.675 -0.53125 0.85 0 0 Z " fill="#B6ABB3" transform="translate(336,179)"/>
<path d="M0 0 C0.89138672 0.27263672 0.89138672 0.27263672 1.80078125 0.55078125 C8.17086777 2.48261153 14.57058358 4.27652526 21 6 C21 6.33 21 6.66 21 7 C18.4329611 6.99396701 15.87786812 6.94644628 13.3125 6.875 C12.2306543 6.87886719 12.2306543 6.87886719 11.12695312 6.8828125 C5.80792587 6.68851013 5.80792587 6.68851013 3.36474609 4.60644531 C1.98046875 2.9453125 1.98046875 2.9453125 0 0 Z " fill="#F7D88F" transform="translate(154,296)"/>
<path d="M0 0 C3.82709696 1.60665863 6.4721292 4.07172401 9.5 6.875 C10.4384375 7.73867188 11.376875 8.60234375 12.34375 9.4921875 C14.60314005 11.62531752 16.81852983 13.78765997 19 16 C12.61785366 14.78473632 9.73338888 12.29917599 5.5625 7.4375 C5.02173828 6.83486328 4.48097656 6.23222656 3.92382812 5.61132812 C0 1.19144082 0 1.19144082 0 0 Z " fill="#CCB57B" transform="translate(115,268)"/>
<path d="M0 0 C5.36885778 1.45511099 9.36286359 4.00323121 13.875 7.125 C14.56335938 7.59292969 15.25171875 8.06085938 15.9609375 8.54296875 C17.64492672 9.68901697 19.3230716 10.84364479 21 12 C18.13822943 13.43088528 16.06624227 12.59991697 13 12 C13 10.68 13 9.36 13 8 C12.34 7.773125 11.68 7.54625 11 7.3125 C7.09257775 5.60300277 3.47578462 3.47531064 0 1 C0 0.67 0 0.34 0 0 Z " fill="#D7D4D4" transform="translate(178,113)"/>
<path d="M0 0 C0.66 0.33 1.32 0.66 2 1 C1.01 2.485 1.01 2.485 0 4 C0.33 4.99 0.66 5.98 1 7 C-2.3 7.66 -5.6 8.32 -9 9 C-7.12803847 5.25607694 -6.59931881 4.39954587 -3.375 2.25 C-2.74335938 1.82203125 -2.11171875 1.3940625 -1.4609375 0.953125 C-0.97882813 0.63859375 -0.49671875 0.3240625 0 0 Z " fill="#E0C37E" transform="translate(288,303)"/>
<path d="M0 0 C-2.89399469 2.34211663 -5.67155428 3.86862171 -9.125 5.25 C-10.42824219 5.78367187 -10.42824219 5.78367187 -11.7578125 6.328125 C-14 7 -14 7 -16 6 C-14.68 4.35 -13.36 2.7 -12 1 C-11.34 1.33 -10.68 1.66 -10 2 C-10.33 2.33 -10.66 2.66 -11 3 C-10.34 3.33 -9.68 3.66 -9 4 C-9 3.01 -9 2.02 -9 1 C-5.8035914 -0.06546953 -3.34252724 -0.07427838 0 0 Z " fill="#F8DB8A" transform="translate(275,336)"/>
<path d="M0 0 C0 0.99 0 1.98 0 3 C-1.66666667 4.33333333 -3.33333333 5.66666667 -5 7 C-6.31657183 8.79353348 -7.52077356 10.62007354 -8.69140625 12.51171875 C-10.32922924 14.37443684 -11.59184458 14.61815718 -14 15 C-12.40153531 10.75091664 -9.1869608 8.17774261 -5.875 5.25 C-5.31167969 4.74339844 -4.74835938 4.23679687 -4.16796875 3.71484375 C-2.78348469 2.47115468 -1.39238512 1.23483695 0 0 Z " fill="#D3D0D3" transform="translate(112,76)"/>
<path d="M0 0 C0.99 0.33 1.98 0.66 3 1 C3.66666667 3 4.33333333 5 5 7 C5.99 7.33 6.98 7.66 8 8 C8.33 9.65 8.66 11.3 9 13 C8.01 13 7.02 13 6 13 C4.99491199 11.21118264 3.99607264 9.41885304 3 7.625 C2.1646875 6.12839844 2.1646875 6.12839844 1.3125 4.6015625 C0 2 0 2 0 0 Z " fill="#F5D78D" transform="translate(77,246)"/>
<path d="M0 0 C-1.28913487 0.67154933 -2.58140204 1.33708859 -3.875 2 C-4.59429687 2.37125 -5.31359375 2.7425 -6.0546875 3.125 C-8 4 -8 4 -10 4 C-10 4.99 -10 5.98 -10 7 C-10.66 7 -11.32 7 -12 7 C-12 6.34 -12 5.68 -12 5 C-14.31 5.33 -16.62 5.66 -19 6 C-15.78117751 3.85411834 -12.54876914 2.60197657 -8.9375 1.3125 C-8.30005859 1.07466797 -7.66261719 0.83683594 -7.00585938 0.59179688 C-2.24081277 -1.12040638 -2.24081277 -1.12040638 0 0 Z " fill="#C8AF78" transform="translate(249,295)"/>
<path d="M0 0 C1.32 0 2.64 0 4 0 C3.39816251 2.02045442 2.72693904 4.02111039 2 6 C1.01 6.495 1.01 6.495 0 7 C-0.33 7.66 -0.66 8.32 -1 9 C-2.65 6.69 -4.3 4.38 -6 2 C-5.34 1.67 -4.68 1.34 -4 1 C-3.34 1.66 -2.68 2.32 -2 3 C-1.34 2.34 -0.68 1.68 0 1 C0 0.67 0 0.34 0 0 Z " fill="#DDC477" transform="translate(60,272)"/>
<path d="M0 0 C-1.37285156 0.41572266 -1.37285156 0.41572266 -2.7734375 0.83984375 C-4.55621094 1.38318359 -4.55621094 1.38318359 -6.375 1.9375 C-7.55835938 2.29714844 -8.74171875 2.65679687 -9.9609375 3.02734375 C-12.87926818 3.87576274 -12.87926818 3.87576274 -15 5 C-17.00800456 4.71887936 -19.01014051 4.38932033 -21 4 C-21 3.67 -21 3.34 -21 3 C-18.25244513 2.30111323 -15.50268803 1.6156012 -12.75 0.9375 C-11.97269531 0.73833984 -11.19539062 0.53917969 -10.39453125 0.33398438 C-9.64042969 0.15029297 -8.88632813 -0.03339844 -8.109375 -0.22265625 C-7.07248535 -0.48187866 -7.07248535 -0.48187866 -6.01464844 -0.74633789 C-3.74929191 -1.03156637 -2.1631688 -0.68076195 0 0 Z " fill="#C6B472" transform="translate(244,328)"/>
<path d="M0 0 C4.60853797 0.72008406 8.67237409 2.31295939 13 4 C12.38125 4.15082031 11.7625 4.30164063 11.125 4.45703125 C9.00418549 4.96842838 9.00418549 4.96842838 7 5.6875 C4.31885236 6.10642932 3.18068938 5.57911989 1 4 C0.25 1.875 0.25 1.875 0 0 Z " fill="#DAC47B" transform="translate(141,321)"/>
<path d="M0 0 C0.99 0.33 1.98 0.66 3 1 C2.443125 2.5778125 2.443125 2.5778125 1.875 4.1875 C0.92293691 8.33577488 1.30127181 9.30276806 3 13 C2.625 15.3125 2.625 15.3125 2 17 C1.34 15.02 0.68 13.04 0 11 C-0.66 11 -1.32 11 -2 11 C-2 8.36 -2 5.72 -2 3 C-1.34 2.67 -0.68 2.34 0 2 C0 1.34 0 0.68 0 0 Z " fill="#F6D78E" transform="translate(70,221)"/>
<path d="M0 0 C1.32 1.65 2.64 3.3 4 5 C3.030625 5.28875 2.06125 5.5775 1.0625 5.875 C-2.10664203 6.64214682 -2.10664203 6.64214682 -3 9 C-3.66 8.67 -4.32 8.34 -5 8 C-4.1875 4.5625 -4.1875 4.5625 -3 1 C-2.01 0.67 -1.02 0.34 0 0 Z " fill="#EFD68C" transform="translate(349,213)"/>
<path d="M0 0 C3.80881639 1.44472346 5.29742886 3.32603071 7 7 C6.67 7.99 6.34 8.98 6 10 C5.01 8.68 4.02 7.36 3 6 C1.68 6.33 0.36 6.66 -1 7 C-1 4.37886292 -0.68707555 2.49064888 0 0 Z " fill="#E4D9DA" transform="translate(266,169)"/>
<path d="M0 0 C-0.99 0.33 -1.98 0.66 -3 1 C-3.33 1.99 -3.66 2.98 -4 4 C-7.63 4.33 -11.26 4.66 -15 5 C-12.62383533 2.62383533 -10.64650479 1.95931819 -7.5 0.8125 C-6.5203125 0.44769531 -5.540625 0.08289063 -4.53125 -0.29296875 C-2 -1 -2 -1 0 0 Z " fill="#C5B474" transform="translate(259,322)"/>
<path d="M0 0 C3.03852705 1.40976705 5.5939595 3.08870228 8.25 5.125 C8.95640625 5.66382813 9.6628125 6.20265625 10.390625 6.7578125 C10.92171875 7.16773438 11.4528125 7.57765625 12 8 C9.66666667 8 7.33333333 8 5 8 C5 7.34 5 6.68 5 6 C4.01 6 3.02 6 2 6 C1.855625 5.38125 1.71125 4.7625 1.5625 4.125 C1.06847775 1.96741678 1.06847775 1.96741678 0 0 Z " fill="#CBB077" transform="translate(107,300)"/>
<path d="M0 0 C0.33 0.99 0.66 1.98 1 3 C1.99 3.66 2.98 4.32 4 5 C2.39504433 4.88557539 0.79101881 4.75805306 -0.8125 4.625 C-1.70582031 4.55539062 -2.59914062 4.48578125 -3.51953125 4.4140625 C-6 4 -6 4 -9 2 C-2.25 0 -2.25 0 0 0 Z " fill="#F4D895" transform="translate(180,289)"/>
<path d="M0 0 C0.99 0 1.98 0 3 0 C3.66 3.3 4.32 6.6 5 10 C3.68 10 2.36 10 1 10 C0.34 8.68 -0.32 7.36 -1 6 C0.32 6.33 1.64 6.66 3 7 C2.505 6.5875 2.01 6.175 1.5 5.75 C0 4 0 4 0 0 Z " fill="#FBDD8F" transform="translate(82,214)"/>
<path d="M0 0 C0.86625 0.4640625 0.86625 0.4640625 1.75 0.9375 C3.88983948 2.10425034 3.88983948 2.10425034 6 2.1875 C9.4240727 3.57852954 10.36934037 6.79691858 12 10 C11.01 10 10.02 10 9 10 C8.67 9.01 8.34 8.02 8 7 C7.401875 6.71125 6.80375 6.4225 6.1875 6.125 C3.30899659 4.64462682 1.89900001 2.57721429 0 0 Z " fill="#CEC6C7" transform="translate(273,96)"/>
<path d="M0 0 C3.98175544 2.10148204 6.35039045 4.36905358 9 8 C6.525 7.01 6.525 7.01 4 6 C4 5.34 4 4.68 4 4 C3.34 4 2.68 4 2 4 C1.34 5.98 0.68 7.96 0 10 C-1.231394 6.30581799 -0.64432764 3.7943739 0 0 Z " fill="#D7BF74" transform="translate(98,292)"/>
<path d="M0 0 C2.05078125 0.03255208 4.1015625 0.06510417 6.15234375 0.09765625 C3.13347131 3.5809706 0.58324846 4.88922769 -3.84765625 6.09765625 C-2.77957394 0.14691194 -2.77957394 0.14691194 0 0 Z " fill="#D8BC77" transform="translate(288.84765625,325.90234375)"/>
<path d="M0 0 C0.33 0.99 0.66 1.98 1 3 C0.34 3 -0.32 3 -1 3 C-1.33 4.32 -1.66 5.64 -2 7 C-2.66 6.01 -3.32 5.02 -4 4 C-5.98 4.99 -5.98 4.99 -8 6 C-8 5.34 -8 4.68 -8 4 C-3.64705882 0 -3.64705882 0 0 0 Z " fill="#D6BE74" transform="translate(298,297)"/>
<path d="M0 0 C0 1.65 0 3.3 0 5 C-2.31 5 -4.62 5 -7 5 C-6.34 4.67 -5.68 4.34 -5 4 C-5.33 3.01 -5.66 2.02 -6 1 C-3 0 -3 0 0 0 Z " fill="#F7DC87" transform="translate(245,328)"/>
<path d="M0 0 C0 0.99 0 1.98 0 3 C-2.81534937 5.65894107 -5.12793601 7.42636089 -9 8 C-9 7.01 -9 6.02 -9 5 C-6.03 3.35 -3.06 1.7 0 0 Z " fill="#F6DA90" transform="translate(267,285)"/>
<path d="M0 0 C1.65 0 3.3 0 5 0 C5 0.99 5 1.98 5 3 C2 5.1875 2 5.1875 -1 7 C-1.66 6.67 -2.32 6.34 -3 6 C-2.01 5.67 -1.02 5.34 0 5 C0 3.35 0 1.7 0 0 Z " fill="#F9DA8B" transform="translate(260,272)"/>
<path d="M0 0 C0.33 0.66 0.66 1.32 1 2 C-0.98 4.97 -2.96 7.94 -5 11 C-5.33 10.34 -5.66 9.68 -6 9 C-5.39351421 7.31050386 -4.72159424 5.64363134 -4 4 C-3.67 3.01 -3.34 2.02 -3 1 C-2.01 0.67 -1.02 0.34 0 0 Z " fill="#CFB87E" transform="translate(318,255)"/>
<path d="M0 0 C0.99 0.33 1.98 0.66 3 1 C2.3125 3.4375 2.3125 3.4375 1 6 C-1.625 6.8125 -1.625 6.8125 -4 7 C-4.33 6.01 -4.66 5.02 -5 4 C-4.360625 3.71125 -3.72125 3.4225 -3.0625 3.125 C-0.84793921 2.17176549 -0.84793921 2.17176549 0 0 Z " fill="#F9D989" transform="translate(317,250)"/>
<path d="M0 0 C4.43090471 1.20842856 6.98112756 2.51668565 10 6 C6.6875 5.8125 6.6875 5.8125 3 5 C1.0625 2.4375 1.0625 2.4375 0 0 Z M-1 3 C-0.34 3 0.32 3 1 3 C0.67 3.66 0.34 4.32 0 5 C-0.33 4.34 -0.66 3.68 -1 3 Z " fill="#E5E0DF" transform="translate(266,63)"/>
<path d="M0 0 C0.66 0.33 1.32 0.66 2 1 C0.88059018 5.85077588 -0.1334716 8.777893 -4 12 C-3.67 11.21625 -3.34 10.4325 -3 9.625 C-1.88133489 7.15667503 -1.88133489 7.15667503 -2 5 C-2 4.01 -2 3.02 -2 2 C-1.34 2 -0.68 2 0 2 C0 1.34 0 0.68 0 0 Z " fill="#DDC181" transform="translate(290,244)"/>
<path d="M0 0 C0.99 0 1.98 0 3 0 C3.33 2.64 3.66 5.28 4 8 C3.01 8.495 3.01 8.495 2 9 C0.50178941 5.62902617 0 3.79557881 0 0 Z " fill="#F0D98B" transform="translate(65,214)"/>
<path d="M0 0 C2.25 -0.25 2.25 -0.25 5 0 C7.3125 2 7.3125 2 9 4 C6.1875 4.25 6.1875 4.25 3 4 C1.125 2 1.125 2 0 0 Z M1 3 C1.33 3.66 1.66 4.32 2 5 C1.34 4.67 0.68 4.34 0 4 C0.33 3.67 0.66 3.34 1 3 Z " fill="#E8E6E7" transform="translate(253,162)"/>
<path d="M0 0 C-0.598125 0.268125 -1.19625 0.53625 -1.8125 0.8125 C-4.05510787 1.8694745 -4.05510787 1.8694745 -5.5 3.6875 C-5.995 4.120625 -6.49 4.55375 -7 5 C-9.97397616 4.72963853 -10.85446026 4.14553974 -13 2 C-12.236875 1.855625 -11.47375 1.71125 -10.6875 1.5625 C-2.8537234 -0.07712766 -2.8537234 -0.07712766 0 0 Z " fill="#FADF91" transform="translate(239,330)"/>
<path d="M0 0 C0.66 0.33 1.32 0.66 2 1 C0.35 2.65 -1.3 4.3 -3 6 C-3 3 -3 3 -1.5 1.3125 C-0.7575 0.6628125 -0.7575 0.6628125 0 0 Z M-5 6 C-4.67 6.99 -4.34 7.98 -4 9 C-5.65 9.33 -7.3 9.66 -9 10 C-7.68 8.68 -6.36 7.36 -5 6 Z " fill="#F5F1F3" transform="translate(156,116)"/>
<path d="M0 0 C7.42857143 -0.28571429 7.42857143 -0.28571429 11 2 C8.69 2.66 6.38 3.32 4 4 C2.68 2.68 1.36 1.36 0 0 Z " fill="#F9E08C" transform="translate(171,332)"/>
<path d="M0 0 C1.64826111 2.96687001 2.44271087 5.65626525 3 9 C0.5 6.6875 0.5 6.6875 -2 4 C-2 3.01 -2 2.02 -2 1 C-1.67 1.33 -1.34 1.66 -1 2 C-0.67 1.34 -0.34 0.68 0 0 Z " fill="#CCB178" transform="translate(65,283)"/>
<path d="M0 0 C0 0.99 0 1.98 0 3 C-4.22222222 6 -4.22222222 6 -7 6 C-5.9024777 3.00675737 -5.32317108 2.15389099 -2.375 0.75 C-1.59125 0.5025 -0.8075 0.255 0 0 Z " fill="#F8D891" transform="translate(272,300)"/>
<path d="M0 0 C3.99455527 0.61454696 6.74466336 2.70646737 10 5 C9.01 5.33 8.02 5.66 7 6 C5.17578125 5.0390625 5.17578125 5.0390625 3.3125 3.625 C2.68988281 3.16351563 2.06726563 2.70203125 1.42578125 2.2265625 C0.95527344 1.82179688 0.48476562 1.41703125 0 1 C0 0.67 0 0.34 0 0 Z " fill="#FBDA8F" transform="translate(119,296)"/>
<path d="M0 0 C0.66 0.33 1.32 0.66 2 1 C1.67 1.99 1.34 2.98 1 4 C-1.4375 5.125 -1.4375 5.125 -4 6 C-4.99 6.495 -4.99 6.495 -6 7 C-4.60667426 3.63279613 -3.0210714 2.0140476 0 0 Z " fill="#DBC483" transform="translate(318,275)"/>
<path d="M0 0 C0.66 0 1.32 0 2 0 C1.34 1.65 0.68 3.3 0 5 C-0.99 5 -1.98 5 -3 5 C-3.66 4.01 -4.32 3.02 -5 2 C-4.360625 1.855625 -3.72125 1.71125 -3.0625 1.5625 C-1.02454854 1.18992819 -1.02454854 1.18992819 0 0 Z " fill="#F7D98F" transform="translate(309,265)"/>
<path d="M0 0 C0 3.62453269 -0.92469613 5.07920195 -3 8 C-3.99 8.33 -4.98 8.66 -6 9 C-6 6 -6 6 -4.6875 4.5 C-4.130625 4.005 -3.57375 3.51 -3 3 C-2.1646875 2.1646875 -2.1646875 2.1646875 -1.3125 1.3125 C-0.879375 0.879375 -0.44625 0.44625 0 0 Z " fill="#F8DB96" transform="translate(289,248)"/>
<path d="M0 0 C0.68835938 0.50660156 0.68835938 0.50660156 1.390625 1.0234375 C5.98192426 4.36308951 5.98192426 4.36308951 11 7 C8.3125 7.3125 8.3125 7.3125 5 7 C2.125 4.625 2.125 4.625 0 2 C0 1.34 0 0.68 0 0 Z " fill="#9F9B9C" transform="translate(317,180)"/>
<path d="M0 0 C0.66 0.66 1.32 1.32 2 2 C0.35 3.98 -1.3 5.96 -3 8 C-3.99 7.67 -4.98 7.34 -6 7 C-4.02 4.69 -2.04 2.38 0 0 Z " fill="#FBDC93" transform="translate(317,304)"/>
<path d="M0 0 C3.68754757 0.49831724 5.60490662 1.10067643 8 4 C5.36 3.67 2.72 3.34 0 3 C0 2.01 0 1.02 0 0 Z " fill="#E5E3E4" transform="translate(191,122)"/>
<path d="M0 0 C2.31 0.33 4.62 0.66 7 1 C7 1.99 7 2.98 7 4 C7.66 4.33 8.32 4.66 9 5 C5.51694958 4.35499066 2.93797836 2.95865224 0 1 C0 0.67 0 0.34 0 0 Z " fill="#F9D98B" transform="translate(131,304)"/>
<path d="M0 0 C0.66 0 1.32 0 2 0 C2.33 0.99 2.66 1.98 3 3 C1.68 4.32 0.36 5.64 -1 7 C-2 4 -2 4 -1.0625 1.8125 C-0.5365625 0.9153125 -0.5365625 0.9153125 0 0 Z " fill="#F8D889" transform="translate(98,249)"/>
<path d="M0 0 C0.93065133 2.60582371 1.14917407 3.64198224 0.0625 6.25 C-0.4634375 7.11625 -0.4634375 7.11625 -1 8 C-1.99 7.67 -2.98 7.34 -4 7 C-2.68 4.69 -1.36 2.38 0 0 Z " fill="#F6DC8D" transform="translate(303,247)"/>
<path d="M0 0 C0.99 0 1.98 0 3 0 C1.25 5.75 1.25 5.75 -1 8 C-1 4.88742431 -0.82638376 2.89234315 0 0 Z " fill="#FCDC8D" transform="translate(323,239)"/>
<path d="M0 0 C0 1.32 0 2.64 0 4 C-0.99 4.33 -1.98 4.66 -3 5 C-3.33 4.01 -3.66 3.02 -4 2 C-4.66 1.67 -5.32 1.34 -6 1 C-3.92446352 0.4465236 -2.15634036 0 0 0 Z " fill="#F8F4F4" transform="translate(236,217)"/>
</svg>
